{
  "accessors": [
    {
      "bufferView": 2,
      "componentType": 5126,
      "count": 13844,
      "max": [
        93.898200988769531,
        188.2706298828125,
        17.076696395874023
      ],
      "min": [
        -93.775772094726562,
        1.4945420026779175,
        -20.717578887939453
      ],
      "type": "VEC3"
    },
    {
      "bufferView": 2,
      "byteOffset": 166128,
      "componentType": 5126,
      "count": 13844,
      "max": [
        1.0479816198348999,
        1.038028359413147,
        1.000301718711853
      ],
      "min": [
        -1.0479837656021118,
        -1.0382990837097168,
        -1.02094566822052
      ],
      "type": "VEC3"
    },
    {
      "bufferView": 3,
      "componentType": 5126,
      "count": 13844,
      "max": [
        1,
        1,
        0.99998366832733154,
        1
      ],
      "min": [
        -1,
        -1,
        -0.9999881386756897,
        -1
      ],
      "type": "VEC4"
    },
    {
      "bufferView": 1,
      "componentType": 5126,
      "count": 13844,
      "max": [
        0.99771851301193237,
        0.99869495630264282
      ],
      "min": [
        0.00083906762301921844,
        0.0023025101982057095
      ],
      "type": "VEC2"
    },
    {
      "bufferView": 1,
      "byteOffset": 110752,
      "componentType": 5126,
      "count": 13844,
      "max": [
        0.99771851301193237,
        0.99869495630264282
      ],
      "min": [
        0.00083906762301921844,
        0.0023025101982057095
      ],
      "type": "VEC2"
    },
    {
      "bufferView": 0,
      "componentType": 5125,
      "count": 60756,
      "max": [
        13843
      ],
      "min": [
        0
      ],
      "type": "SCALAR"
    },
    {
      "bufferView": 4,
      "componentType": 5126,
      "count": 1,
      "max": [
        1,
        0,
        0,
        0,
        0,
        1,
        0,
        0,
        0,
        0,
        1,
        0,
        0,
        0,
        0,
        1
      ],
      "min": [
        1,
        0,
        0,
        0,
        0,
        1,
        0,
        0,
        0,
        0,
        1,
        0,
        0,
        0,
        0,
        1
      ],
      "type": "MAT4"
    }
  ],
  "asset": {
    "extras": {
      "author": "allentang (https://sketchfab.com/allentang)",
      "license": "CC-BY-4.0 (http://creativecommons.org/licenses/by/4.0/)",
      "source": "https://sketchfab.com/models/309fcab7f25f4f45b92571102057a289",
      "title": "DUMMY3"
    },
    "generator": "Sketchfab-3.34.6",
    "version": "2.0"
  },
  "bufferViews": [
    {
      "buffer": 0,
      "byteLength": 243024,
      "byteOffset": 0,
      "name": "floatBufferViews",
      "target": 34963
    },
    {
      "buffer": 0,
      "byteLength": 221504,
      "byteOffset": 243024,
      "byteStride": 8,
      "name": "floatBufferViews",
      "target": 34962
    },
    {
      "buffer": 0,
      "byteLength": 332256,
      "byteOffset": 464528,
      "byteStride": 12,
      "name": "floatBufferViews",
      "target": 34962
    },
    {
      "buffer": 0,
      "byteLength": 221504,
      "byteOffset": 796784,
      "byteStride": 16,
      "name": "floatBufferViews",
      "target": 34962
    },
    {
      "buffer": 0,
      "byteLength": 64,
      "byteOffset": 1018288,
      "byteStride": 64,
      "name": "floatBufferViews"
    }
  ],
  "buffers": [
    {
      "byteLength": 1018352,
      "uri": "scene.bin"
    }
  ],
  "images": [
    {
      "uri": "textures/Motion_Dummy_Male_metallicRoughness.png"
    },
    {
      "uri": "textures/Motion_Dummy_Male_normal.png"
    },
    {
      "uri": "textures/Motion_Dummy_Male_baseColor.jpeg"
    }
  ],
  "materials": [
    {
      "doubleSided": true,
      "emissiveFactor": [
        0,
        0,
        0
      ],
      "name": "Motion_Dummy_Male",
      "normalTexture": {
        "index": 1,
        "scale": 1,
        "texCoord": 1
      },
      "occlusionTexture": {
        "index": 0,
        "strength": 1,
        "texCoord": 0
      },
      "pbrMetallicRoughness": {
        "baseColorFactor": [
          1,
          1,
          1,
          1
        ],
        "baseColorTexture": {
          "index": 2,
          "texCoord": 0
        },
        "metallicFactor": 1,
        "metallicRoughnessTexture": {
          "index": 0,
          "texCoord": 0
        },
        "roughnessFactor": 1
      }
    }
  ],
  "meshes": [
    {
      "primitives": [
        {
          "attributes": {
            "NORMAL": 1,
            "POSITION": 0,
            "TANGENT": 2,
            "TEXCOORD_0": 3,
            "TEXCOORD_1": 4
          },
          "indices": 5,
          "material": 0,
          "mode": 4
        }
      ]
    }
  ],
  "nodes": [
    {
      "children": [
        1
      ],
      "name": "RootNode (gltf orientation matrix)",
      "rotation": [
        -0.70710678118654746,
        -0,
        -0,
        0.70710678118654757
      ]
    },
    {
      "children": [
        2
      ],
      "name": "RootNode (model correction matrix)"
    },
    {
      "children": [
        3
      ],
      "matrix": [
        1,
        0,
        0,
        0,
        0,
        0,
        1,
        0,
        0,
        -1,
        0,
        0,
        0,
        0,
        0,
        1
      ],
      "name": "dummynorma.fbx"
    },
    {
      "children": [
        4
      ],
      "name": "RootNode"
    },
    {
      "children": [
        5,
        6
      ],
      "name": ""
    },
    {
      "name": "_rootJoint"
    },
    {
      "children": [
        7
      ],
      "matrix": [
        1,
        0,
        8.1315162936412833e-20,
        0,
        0,
        0.99999999999999989,
        0,
        0,
        -8.1315162936412833e-20,
        0,
        1,
        0,
        1.8214596497756474e-17,
        -4.4408920985006262e-16,
        2.8421709430404007e-14,
        1
      ],
      "name": ""
    },
    {
      "mesh": 0,
      "name": ""
    }
  ],
  "samplers": [
    {
      "magFilter": 9729,
      "minFilter": 9987,
      "wrapS": 10497,
      "wrapT": 10497
    }
  ],
  "scene": 0,
  "scenes": [
    {
      "name": "OSG_Scene",
      "nodes": [
        0
      ]
    }
  ],
  "skins": [
    {
      "inverseBindMatrices": 6,
      "joints": [
        5
      ],
      "skeleton": 5
    }
  ],
  "textures": [
    {
      "sampler": 0,
      "source": 0
    },
    {
      "sampler": 0,
      "source": 1
    },
    {
      "sampler": 0,
      "source": 2
    }
  ]
}

